<?xml version="1.0" encoding="UTF-8"?>
<svg id="Layer_1" xmlns="http://www.w3.org/2000/svg" version="1.1" viewBox="0 0 792 612">
  <!-- Generator: Adobe Illustrator 30.2.1, SVG Export Plug-In . SVG Version: 2.1.1 Build 1)  -->
  <defs>
    <style>
      .st0 {
        fill: #0b3858;
      }

      .st1 {
        fill: #048a85;
      }
    </style>
  </defs>
  <polygon class="st0" points="383.42 148.29 383.42 298.39 228.44 148.29 175.21 148.29 175.21 370.94 223.93 370.94 223.93 211.74 388.3 370.94 432.13 370.94 432.13 148.29 383.42 148.29"/>
  <path class="st1" d="M481.4,147.97v37.03h77.45v106.51c0,20.32-16.47,36.79-36.79,36.79h-5.01c-15.42,0-30.06-6.72-40.12-18.41l-2.64-3.07-30.79,34.27,4.48,4.14c17.88,16.52,41.33,25.7,65.67,25.7h11.01c48.16,0,82.9-35.56,82.9-79.43v-143.54h-126.17Z"/>
  <g>
    <path class="st0" d="M144.01,412.68c-3.93-5.5-9.99-9.03-16.8-9.03-11.81,0-21.42,10.64-21.42,23.73s9.61,23.73,21.42,23.73c6.8,0,12.87-3.54,16.8-9.03v7.6h6.18v-62.77h-6.18v25.79ZM127.89,444.91c-8.89,0-16.12-7.87-16.12-17.54s7.23-17.54,16.12-17.54,16.12,7.87,16.12,17.54-7.23,17.54-16.12,17.54Z"/>
    <rect class="st0" x="314.95" y="386.89" width="6.18" height="62.77"/>
    <path class="st0" d="M414.8,403.64c-6.79,0-12.86,3.52-16.78,9v-7.57h-6.18v58.95h6.18v-21.94c3.93,5.48,9.99,9,16.78,9,11.82,0,21.43-10.64,21.43-23.73s-9.61-23.73-21.43-23.73ZM414.13,444.91c-8.8,0-15.98-7.71-16.12-17.25v-.57c.14-9.54,7.32-17.25,16.12-17.25s16.13,7.87,16.13,17.54-7.23,17.54-16.13,17.54Z"/>
    <path class="st0" d="M183.19,403.64c-11.67,0-21.17,10.64-21.17,23.73s9.5,23.73,21.17,23.73c8.65,0,16.07-3.2,20.37-8.78l-4.9-3.77c-3.12,4.05-8.75,6.37-15.47,6.37-7.36,0-13.5-6.25-14.76-14.45h35.93v-3.09c0-13.08-9.5-23.73-21.17-23.73ZM168.43,424.27c1.25-8.2,7.39-14.45,14.76-14.45s13.5,6.25,14.76,14.45h-29.51Z"/>
    <path class="st0" d="M281.56,403.64c-11.67,0-21.17,10.64-21.17,23.73s9.5,23.73,21.17,23.73c8.65,0,16.07-3.2,20.37-8.78l-4.9-3.77c-3.12,4.05-8.75,6.37-15.47,6.37-7.36,0-13.5-6.25-14.76-14.45h35.93v-3.09c0-13.08-9.5-23.73-21.17-23.73ZM266.81,424.27c1.25-8.2,7.39-14.45,14.76-14.45s13.5,6.25,14.76,14.45h-29.51Z"/>
    <path class="st0" d="M543.62,403.64c-11.67,0-21.17,10.64-21.17,23.73s9.5,23.73,21.17,23.73c8.65,0,16.07-3.2,20.37-8.78l-4.9-3.77c-3.12,4.05-8.75,6.37-15.47,6.37-7.36,0-13.5-6.25-14.76-14.45h35.93v-3.09c0-13.08-9.5-23.73-21.17-23.73ZM528.86,424.27c1.25-8.2,7.39-14.45,14.76-14.45s13.5,6.25,14.76,14.45h-29.51Z"/>
    <path class="st0" d="M356.24,403.64c-12.62,0-22.89,10.64-22.89,23.73s10.27,23.73,22.89,23.73,22.89-10.64,22.89-23.73-10.27-23.73-22.89-23.73ZM356.24,444.91c-9.21,0-16.71-7.87-16.71-17.54s7.5-17.54,16.71-17.54,16.71,7.87,16.71,17.54-7.5,17.54-16.71,17.54Z"/>
    <path class="st0" d="M497.8,405.22h-1.72c-6.09,0-11.43,3.21-14.43,8.03-2.59-4.78-7.65-8.03-13.47-8.03h-1.72c-5,0-9.49,2.16-12.59,5.59v-5.74h-6.18v44.4h6.18v-26.65c0-6.69,5.42-12.11,12.11-12.11h0c6.25,0,11.32,5.07,11.32,11.32v27.45h6.18v-26.65c0-6.69,5.42-12.11,12.11-12.11h0c6.25,0,11.32,5.07,11.32,11.32v27.45h6.18v-28.95c0-8.45-6.85-15.3-15.3-15.3Z"/>
    <path class="st0" d="M597.04,405.49h-4.23c-5.1,0-9.67,2.4-12.78,6.17v-6.32h-6.18v44.4h6.18v-27.35c0-6.46,4.97-11.71,11.08-11.71h2.81c6.48,0,11.74,5.25,11.74,11.74v27.33h5.85v-28.95c0-8.44-6.5-15.3-14.48-15.3Z"/>
    <path class="st0" d="M683.21,430.03c-1.2-1.27-2.77-2.25-4.54-2.83l-9.59-3.15h0s-6.69-2.2-6.69-2.2c-.8-.26-1.49-.68-1.98-1.2-1.11-1.17-1.31-1.85-1.3-2.76.04-4.34,3.6-7.87,7.94-7.87h2.44c3.69,0,7.27,1.09,10.33,3.14l1.93,1.3,3.37-5.19-1.85-1.24c-4.09-2.74-8.85-4.19-13.78-4.19h-2.44c-7.72,0-14.05,6.28-14.12,13.99-.03,3.43,1.58,5.58,2.99,7.07,1.2,1.27,2.77,2.25,4.54,2.83l8.57,2.82h0s7.71,2.54,7.71,2.54c.8.26,1.49.68,1.98,1.2,1.11,1.17,1.31,1.85,1.3,2.76-.04,4.34-3.6,7.87-7.94,7.87h-2.44c-3.69,0-7.27-1.09-10.33-3.14l-3.94-2.64-3.74,4.94,4.23,2.84c4.09,2.74,8.85,4.19,13.78,4.19h2.44c7.72,0,14.05-6.28,14.12-13.99.03-3.43-1.58-5.58-2.99-7.07Z"/>
    <polygon class="st0" points="232.47 442.26 216.5 405.33 209.77 405.33 210.3 406.56 228.89 449.55 236.24 449.55 253.31 406.47 253.76 405.33 247.11 405.33 232.47 442.26"/>
    <path class="st0" d="M630.8,391.63h-6.18v13.41h-6.3v6.18h6.3v27.44c0,6.55,5.33,11.88,11.88,11.88h2.59c1.99,0,3.93-.28,5.82-.83v-6.56c-1.85.8-3.8,1.2-5.82,1.2h-2.59c-3.14,0-5.69-2.55-5.69-5.69v-27.44h14.09v-6.18h-14.09v-13.41Z"/>
  </g>
</svg>